<svg xmlns="http://www.w3.org/2000/svg" version="1.1" xmlns:xlink="http://www.w3.org/1999/xlink" xmlns:svgjs="http://svgjs.dev/svgjs" width="512" height="512"><svg id="SvgjsSvg1053" xmlns="http://www.w3.org/2000/svg" version="1.1" viewBox="0 0 512 512">
  <!-- Generator: Adobe Illustrator 29.0.0, SVG Export Plug-In . SVG Version: 2.1.0 Build 186)  -->
  <defs>
    <style>
      .st0 {
        fill: #6b632c;
      }
    </style>
  </defs>
  <path class="st0" d="M438,78.1c122.3,121.1,86.6,322.4-63.5,401.6C192.2,576-27.8,422.7,3.2,218.2,34.6,11.4,289.2-69.3,438,78.1ZM248.7,15c-52.4,1.5-103.7,20.3-144.5,52.9C-28.4,173.8-14.4,374.6,131.2,461.3c184.8,110.1,411.8-54.9,360.7-264.5C465.3,87.9,360.2,11.8,248.7,15Z"></path>
  <path class="st0" d="M219.4,426.4c-9.4,3.9-21.6,1.9-30.8-2.3-1.5-.7-8.9-4.9-9.4-5.9-.9-1.7,3.7-4.3,4.8-5,5.8-3.5,13-6.2,19.4-8.5.4-1.6-1-1.1-1.8-2.1-1.4-1.6-2.7-3.6-4.1-5.3-1.5-.2-5.5,3-7.2,3.8-17.8,8.6-38.5,9.7-54.3-3.5,4.6-8.9,17.7-9.4,26.5-8.1s12.7,3.8,19.3,4.7,2.7.7,2.6-.4c-7.9-3.7-15.8-9-22.5-14.6-4.3.9-8.4,2.4-12.8,2.9-6.8.8-16.2.5-22.9-.8-18.2-3.4-34.5-20.2-38-38.3,17.5,4.2,36.8,4.5,52.4,14.1.9-.4.2-2.8,1.7-2.4,2.2.6,18.3,18.2,19.4,17.1-8.5-14.7-10.1-32.9-2.9-48.5.8-1.8,6.5-11.7,8-11.5s5.8,9.8,6.5,11.9c4.3,12.9,3.8,26.5.9,39.6-.7,3-4.8,14.7-3.7,16.5s7.6,5.4,9.1,6.2,11,5.8,11.4,5.4c-4-5.7-7.6-11.9-9-18.9-2.5-12.4-.6-24.6,5.8-35.5.2-.4,0-1.2,1-.8,5.5,2.3,12.1,20.8,12.6,26.7,1,12.6-6,26.1,2.8,36.4,10.4,12.2,30,5.3,22.3-11h58.2c-7.7,15.3,11.4,23,21.7,11.6,9.8-10.8,2.1-22.3,2.8-34.6.6-10.3,5.4-21.8,12.6-29.1,2.2-.5,6.3,11.8,6.8,13.9,3.7,14.8.5,29.9-9,41.8,7.8-2.9,14.7-7.6,21.3-12.4-1.1-7.2-4-14-5.2-21.2-2.1-12.6-1.8-26.7,3.4-38.5.5-1.1,4.3-8.1,4.8-8.2,1-.2,1.5.3,2.1.9,3.5,3.3,7.7,13.3,9,18,4.1,14.8,1.8,27-4.7,40.6l18.7-16.5,2.4,1.9c15.9-9.3,34.4-9.3,51.8-13.5-1.8,12.9-13.7,27.4-25.1,33.4-14.6,7.7-33.1,7.4-48.6,2.8-7.3,5.8-15,11.3-23.7,14.6l.3,1.2c14.2-2.7,29.9-10.2,43.8-2.8,1.5.8,5.1,3.2,5.8,4.6s-2.9,3.2-4.1,3.9c-18.3,11.3-40.9,8.1-57.9-3.9l-5.8,7.9c6.1,1.9,13.3,4.6,18.8,7.9s6.7,3.7,5.4,5.6-9.9,5.9-11.8,6.6c-9.3,3.8-18.5,4.8-28.4,2.5v-11.6c2.9.1,5.3.8,8.3.6,4.9-.4,9.9-4.1,15-1.8v-1.2c-6.9-4-13.3,0-20.5-.6-2.6-.2-9.2-1.9-11.1-3.7-2.8-2.6-5.4-11.5-6.5-15.3h-4.2c2.2,7.1,6.1,13.7,4.8,21.6-.9,5.6-7.5,9.1-12.7,9.6l-1.5-27c-3-6.5-13.4-7.1-16.1-.1l-1.4,27.1c-15.3-2.8-14.6-13.1-10.3-25.3.6-1.6,2.1-3.5,2.3-5.1s-3.1-1.1-3.7-.6-6.4,13.7-6.6,14.9c-1.1,6.2,2.1,14,7.2,17.6,5.7,4,10.6,2.2,16.2,9s1.2,4.7,5.1,4.6c2.6,0,3-3.4,4.6-5.5,4.4-5.7,11.2-4.7,15.9-8.7s5.7-8.3,6.7-12.6c6.3-.2,4.9,16.6,2.5,18.1l-8.6-4.4c-4.2,2.6,2.2,5.3,3.9,7.7,7.4,10.2-1.6,22.7-13.8,20.5-5.7-1-9.1-5.1-12.8-8.9-3.7,9.5-17.7,12.9-24.4,4.5s-2.8-16,4.7-20.5c.1-8.1-6.4.9-8.9,1.3-4,.6-2.7-15-1.7-17.7s2.2-2.6,2.1-4.3c-3.3,1.4-7.1,2.8-10.7,3-6.8.5-15.2-4.3-20.5,1.8,8.5-2.8,15.5,4.6,23.9.6v11.3ZM165.5,359.9v-15.3h-.6c.6,1.5-.6,3.8-.6,4.6v9.2c0,.3.8.9.6,1.5h.6ZM346.3,345.8v13.5c2-1.4,1-5,1.3-7.1l-1.3-6.4ZM134.5,363.6c-4.1-.4-9.2,0-13.5,0s-1.8.6-1.5,1.2c11.5,1.1,23,3.2,34,6.8,1.3-1,0-1-.5-1.4-4.3-3.5-13-6.1-18.5-6.6ZM392.3,364.2c-11.6-1.2-26.2-1.4-34.9,7.3l34.9-7.3ZM244.5,437.1c-.6-3.3-5.1-2.9-7.3-1.5-5.1,3.2-5.2,11,.3,13.8,5.7,2.9,11.7-.5,13.8-6.1-4.2-1.9-9.1,5.1-11.9,1.2-2.6-3.6,1.6-7,5.2-7.3ZM260.5,442.6c1.3,6.8,10.3,10.6,15.6,5.5,6.1-5.9-1-16.9-8.1-12.4-.6.4-1.1,0-.8,1.4,3.9,0,7.9,5.2,4,8-3.2,2.3-7-3.6-10.8-2.5Z"></path>
  <path class="st0" d="M253.7,183.1c-.2-1.1-2.7-4.8-3.4-6.5-8.8-22.3-10.1-49,5.5-68.6,14.3,18,14.6,43.5,6.9,64.5-1.2,3.3-4.3,8-4.7,11.2-.8,6.2-.5,19.8,0,26.3,0,1.6.7,3,.6,4.6l3.4-12.9c5.2-17,18.8-32.5,35.9-38,.6,16.6-8.3,33.3-20.5,44.1-6,5.3-13.3,8.5-19.3,13.8v18.1c1.1-.2,1.1-1.2,1.4-2,6.6-15.4,9.1-15.6,21.9-25.3.5-.4,1.2-1.7,1.8-.6-3.8,10.5-9.6,19.4-17.8,27s-7.4,5.1-7.4,6.7v21.1c1.1-.2,1.1-1.2,1.4-2,2.4-5.5,3.4-10.7,6.5-16.2,6.5-11.7,24.8-30.2,37.8-33.9,1.3-.4.9.7.9,1.5-.3,26.3-22.7,49.9-45.6,59.8-2.2,2.2-.3,8.9-.7,12.2,8.5-14.3,25.4-23,42-22.4-4.3,3.8-8.6,8-13.5,11-9.5,5.8-21.3,7.9-28.8,16.6v14.4l3.8-8.2c3.3-4.9,8.6-8.2,14.6-8.1-3.1,5.9-6.3,11.8-11.4,16.2-2.2,2-5.6,3.1-7,5.8v23.3c0,.1,1,1.1,1.2.9,5.9-25.5,28.3-47,52.7-55.2-.5,22.2-15.1,45.2-34.3,56.1-3,1.7-19,7.8-19,10.4v19.9h-4.9v-18.7c0-4-11.9-7.5-14.9-9-22.4-10.7-37.9-34-39.6-58.8,1.4-1.4,15.5,6.9,17.7,8.3,11.8,7.5,21.7,17.2,29,29.3l7.9,18.2v-25.4c-7.9-5.9-14-12.5-18.4-21.4,5.8-.9,11.2,3,14.6,7.5l3.8,6.9v-13.2c-12-12.2-31.9-13.2-42.3-27.6,17.2-.2,32.1,8.4,42.3,21.8v-11c-14.5-6.9-27.6-15.1-36.4-28.9-6.1-9.4-10.8-21.1-9.9-32.4,18.8,7.5,35.8,25,43.1,44l3.2,10v-24.5c-12.5-7.8-20.8-19.5-25.8-33.4l13.2,9.5c4.1,3.6,7.1,8.1,9.9,12.8l2.7,6.8v-19c-21.5-11.2-41-31-39.8-57,14.6,4.6,27.4,17.8,33.6,31.7l6.2,19.2v-31.6Z"></path>
  <path class="st0" d="M336.5,93.3c13.1,2.1,26.9,16.5,28.2,29.7.6,6.3-.8,11.7-2.4,17.6,15.1,18,29.5,37.3,36.7,59.9,1.1.1.6-1.4.6-2.1.6-17.1,3.8-32.7,13.8-46.9,11.9,13.8,15.3,36.6,8.9,53.6s-8.9,15.2-15.2,21.6l1.1,18.6,4.4-9.4c4.5-6.9,10.2-13.7,16.4-19.1s7.6-6.5,8.6-5.8c8.1,27.2-.7,52.5-22.7,69.5-2.6,2-10,6.1-11.5,8.1s-4.8,13.8-6.5,18c-4.9,12-12.1,25.6-19.7,36.1-1.6,2.2-4.6,6.6-6.4,8.3s-1.6,1.3-2.1.4c-.5-22.1-12.2-41.1-10.7-63.5.1-1.9,2.2-15.5,3.4-15.6,16,9.9,27.2,28.5,24.2,47.8.2.2.8-.4.9-.6,1.8-2.7,5.5-12.8,6.9-16.4,16-41.9,13.3-83.5-8.1-122.8-1-1.7-4.4-8.4-5.5-9.2-1.6-1.2-7.9,1-10.5,1.3-14.4,1.2-28-3.8-37-15.1-.3-1.2,2.6-2.2,3.5-2.6,9.1-3.8,22.8-3.6,32-.2.4-.4-2-3.4-2.5-4-3-3.6-6.6-7-9.5-10.6-13.5,6.5-31.6,6.3-44.4-1.7,5.6-10.2,20.8-12.2,31.1-9s6.1,3.2,9.3,4.5c-5.1-5.9-9.9-12.2-12.6-19.6-.7-1.9-2.8-8.5-2.8-10.1v-10.7ZM345.7,134.9c-3.6-3.1-9.6-3-14.1-3.1l14.1,3.1ZM375.1,164.4c-5.1-6.3-13.9-7.2-21.5-7.3.2,1.2,1.3,1,2.1,1.2,4.1,1.1,8.3,1.7,12.3,3s4.7,2.1,7,3.1ZM410.6,199.9l6.1-15.3c-3.2,3.2-5.9,8.7-6.7,13.2s-.5,2.3.6,2.1ZM405.7,220.1l-2-9.9-2.3-6c.7,4.6,1.7,9.4,3,13.8.2.8,0,1.9,1.2,2.1ZM427.2,244.7c-16,4.6-22.2,20.7-22.1,36.2.9.1.8-1,1.1-1.7,1.8-4.6,2.7-9.8,4.6-14.4,3.5-8.4,9.4-14.5,16.4-20.1ZM375.1,316.4c-.4-4.5-1.8-10.2-4.9-13.5l1.8,6.4,3.1,7Z"></path>
  <path class="st0" d="M174.7,93.3v12c0,3.3-4,13.1-5.8,16.3l-8.9,12.2c9.5-6.5,21.4-8.1,31.9-2.8,1.5.8,9.2,5.8,7.9,7.7-12.6,6.2-25.5,7.7-39.1,3.9s-3.9-2.7-6-1.4c-3.2,1.9-8.6,10.4-11.3,13.5,11.5-3.9,25.5-3.8,36.2,2.2-11.3,14.5-30.3,18.6-47.7,13.8-8.7,15.7-16.7,31.9-20.6,49.6-6.8,30.2-2.4,61.4,9.8,89.5l4.6,9.2v-9.5c0-1.2,1.1-6.1,1.5-7.7,3-11.2,13.2-24.2,23.6-29.4,3.6,13,3.4,27.3.3,40.5-1.5,6.4-4.2,12.5-5.6,18.9-1.5,6.5-1.9,13.1-2.6,19.7-.7,0-1.2,0-1.8-.3-1.6-.8-9.5-12.9-11-15.3-9.2-14.8-16.3-31-21.4-47.7-9.9-6.3-20.1-13.1-26.9-22.9-10.5-15.2-13.2-36.7-7.5-54.1,1-.9,6.3,3.7,7.4,4.6,6.6,5.7,12.8,13.1,17.6,20.4l4.4,8.8,1.1-18c-22.3-18.5-24.2-53.1-6.3-75.2,1.6,0,8.6,16.7,9.5,19.3,3.2,9.7,3.9,18.1,4.3,28.2,0,.7-.5,2.3.6,2.1,6.7-22.9,21.6-42.4,36.5-60.6-8.7-20.2,4.8-42.4,25.4-47.3ZM178.9,131.9c-4,0-9.9,0-12.9,3.1,3.6-1.4,7.4-1.4,11.1-2.1s2,0,1.8-.9ZM158.1,157.6c-7.8-.4-17,.6-22.1,7.3l6.4-3.1,15.6-4.3ZM101.7,199.9c-.2-5.1-2.5-11.2-6.1-14.7l6.1,14.7ZM106,220.1c1.2-.2,1-1.3,1.2-2.1,1.2-4.1,2.5-9,2.4-13.2l-2.8,8.6-.9,6.8ZM106.6,280.8c-.1-15-5.5-30.4-20.8-35.5,4.2,4.3,8.9,8.2,12.1,13.3s5.3,13.5,7.7,20.5c.2.6.1,1.9,1,1.7ZM136.6,317l4.9-14.7c-2.8,3-4.7,8.7-5.4,12.7s-.7,2.1.5,2Z"></path>
  <path class="st0" d="M253.7,20.3v45.4h4.3s0-45.4,0-45.4l33.7,1.8-.6,23.3-12.9-1.2v8.9c0,.4-.8,3.7-1,4.5-1.7,6.2-6.2,11.5-12.6,13-1.6,1.5.5,1.9,1,2.5.7.9,4.2,5.6,4.7,5.8,1.7.8,7.6,0,8,.3v6.7h-45.4v-6.7s9.7-.7,9.7-.7l5-6.9-6.1-3.7c-4-2.8-8-9.8-8-14.7v-8.9l-12.6.6-.9-22.7,33.7-1.8ZM249.4,24.6h-21.8c-.2,0-.9.8-1.5.6v11.6h12.6l.9.9v19c0,.8,1.8,2.8,1.9,4h1.2s0-28.2,0-28.2h-10.4v-4.3h14.7v34c0,.5,1.5,2.6,2.5,2.1V24.6ZM285.6,24.6h-23.3l.6,39.8,1.8-1.5.6-34.6h12.6c.2,0,1.4.6,1.6,1v3.3h-10.4v28.2c1.1.7,3.1-3,3.1-3.4v-19.6l.9-.9h12.6v-12.3ZM248.2,77.9h14.7l-3.2-5.4c-5.3-.7-9.5,0-11.6,5.4Z"></path>
  <path class="st0" d="M129.3,346.4l-28-13.4c-18.1-9.4-29-28.4-32-48.3-.2-1.3-1.4-8,.2-8.2,20.2,7.2,35.8,18.4,45.6,37.8s9.5,21.5,14.2,32.1ZM119.5,334.8c-3.7-14.9-15.3-26-30-30,6.3,4.6,13,8.6,18.4,14.4,4.5,4.8,7.6,10.6,11.6,15.6Z"></path>
  <path class="st0" d="M443.1,277.2c-.7,4.5-1.1,9-2.1,13.5-3.2,13.6-10.1,26.5-20.9,35.5-10.7,8.9-26,12.7-37.7,20.2,5.4-11.5,9.8-23.7,15.7-34.9,6.1-11.5,13.8-19.3,25-25.9,2.6-1.6,18.2-9.7,20-8.5ZM422.9,304.7c-15,3.9-26.5,15-30.6,30,5.1-7.2,10.1-14.4,16.8-20.2s9.3-6.4,13.8-9.8Z"></path>
  <path class="st0" d="M290.2,373.4c.2,0,.7.9.9.6l-.6-6.7c12.5,3,19.9,24.1,7.9,31.5-10.8,6.7-16.3-12.8-1.8-9.7l.6-5.2h-82.8v5.5c13.6-4.1,10.7,15.4-1,9.8-12.4-5.9-4.8-29.6,7.7-31.3l-.6,6.1c.7.2,1.3-.6,1.5-.6h68Z"></path>
  <path class="st0" d="M383.5,238.7c5.6,5.7,10.4,14.4,11.3,22.5,1.1.1.6-1.4.6-2.1.3-7.1-.4-14.1-.6-21.2l1.9.4c7.5,17.4.4,36.4-5.9,53l-7.3-8.6c-11.9-15.6-22.4-34-19.4-54.5,7,1.3,14.4,5.6,19.4,10.6ZM383.7,261.2c.7-1.8-6.1-11.2-6.7-10.4l6.7,10.4Z"></path>
  <path class="st0" d="M247,461.3l8.9-10.1,8.3,9,.6,13.7,12.9-.6.6-6.5,11.6-1.9,1.2.8,2.5,22.9c-11.6,1.5-23.2,2.9-34.9,2.5v-8s27-1.2,27-1.2v-9.8l-4.6.6-.3,4.9-21.5.6v-15c0-.8-3.2-3.8-3.1-5.2-.4-.3-3.1,3.7-3.1,4v16.2h-16.9c-.5,0-5.4-1-5.6-1.2l-.3-4.9-4.9.6v9.2l27.6,1.2v8c-6.4,0-12.9,0-19.3-.6-3.2-.3-11.4-1-14-2s-.8-.3-1-.9l1.8-22.3,12.8,1.3.7,6.7,12.9.6v-12.6Z"></path>
  <path class="st0" d="M147.1,228.7v13.8c0,5.6-5.1,18.2-7.9,23.4-1.6,3-16.7,25-18.2,25.3s-1.2-.8-1.5-1.5c-3.3-8.1-8.2-27.7-8-36.2,0-2.3,1.9-14.5,4-15s.9,3.7.9,4.6c-.1,3.5.3,7-.3,10.4l.9,7c2.1-14.9,15-29.3,30-31.9ZM135.4,250.8c-1.4-1.2-8.1,8.4-7.3,10.4l7.3-10.4Z"></path>
  <path class="st0" d="M395.9,234.9c-20.4-12.4-40.3-28.2-44.1-53.3,29.3-1.5,45.1,27.1,44.1,53.3Z"></path>
  <path class="st0" d="M159.9,181.5c-2.4,10.9-7.4,21.8-14.7,30.3-6.1,7.1-19.7,17.3-27.8,22.4-.8.5-1.2.8-2.2.6.6-11.2,2.2-22.4,7.9-32.3,7.8-13.6,20.9-21.8,36.9-21ZM140.3,200.5c-2.5.7-5.1,3.3-6.7,5.2s-1.5,1-1.2,2.1l8-7.3Z"></path>
  <path class="st0" d="M484.1,188.8l-22,7.2-2.4-8.9,14-5.6c1-1.6-5.4-14.4-6.1-17l-15.3,6.1-4.7-10.7.8-1.6,8.6-4.8c2-.5,4.1,3.7,4.5,5.4l3.4-1.8-5.3-11.6-14.4,9.2-3.1-6.1,19.3-12.6c5.8,10.3,11.5,20.8,16,31.8,1.1,2.8,7.7,19.9,6.6,21.2Z"></path>
  <path class="st0" d="M378.2,114.1c1-.2,1.4,0,2.2.6,1.2.8,5.6,5.5,6.7,6.8,12.8,15.1,14.7,35.4,2.4,51.5-13.5-17-19.5-37.9-11.3-58.8ZM387.3,149c0-3-.7-7.2-3.1-9.2,1.3,2.8,1,7,3.1,9.2Z"></path>
  <path class="st0" d="M132.2,114.2c1.5-.2,2.3,3.4,2.7,4.5,6,19.2-.8,39-12.6,54.3-14.3-18.9-8.8-45.1,9.9-58.8Z"></path>
  <path class="st0" d="M493.4,276.5l-1.2,9.8-17.8-1.8v4.9s17.2,2.5,17.2,2.5c-1.8,12.3-4.8,24.4-8.6,36.2l-23.3-7.4,1.8-8,17.2,4.9,4.2-17.5-17.6-4,2.4-20.2,25.7.6Z"></path>
  <path class="st0" d="M44.1,275.9l2.2,20.3c-.9,1.2-13.5,2.2-15.9,3.1s-1.1.5-.9,1.3l4.1,16.8,16.6-4,1.8,7-23.2,7.7c-2.8-12-7.1-23.7-8-36.2l16.5-2.5-.6-4.9-17.2,1.8-.6-9.8,25.1-.6Z"></path>
  <path class="st0" d="M168.5,60.8l-4.6-13.5-18.6,9.6,2.1,4.4c2-.8,12.5-7.1,13.8-6l1.9,8.2-20.3,10.2-10.4-19.6c12.5-6.7,25-13.4,38.3-18.4l6.3,21.2-8.4,4Z"></path>
  <path class="st0" d="M304.9,95.7c2.2.3,7.5,2.2,9.7,3.2,10.6,4.6,18.6,14.3,24.3,24.1-20.1,1.8-42.9-6.5-49-27.3,4.7.4,10.4-.6,15,0Z"></path>
  <path class="st0" d="M172.8,123.3c7.5-13.7,18.2-24.6,34.2-27.4,4.8-.8,10.5-1.5,14.8.7-8.5,19.8-28.5,27.5-49,26.7Z"></path>
  <path class="st0" d="M213.3,487.4l-16.5-3.7,1.8-9.8,7.4,1.2.6-4.9-17.8-4-1.2,5.3,6.1,1.2-1.8,9.8-15.7-5.5,5.9-21.4,33.4,8.5c1.4,2-2.4,19.6-2.2,23.3Z"></path>
  <path class="st0" d="M329.7,455.5c.5,3.5,7.4,19.9,6.1,22l-15.2,4.4-1.8-9.2,6.2-1.6-1.3-4.5-18.3,4.2.6,4.9,8-1.2,1.6,9.2-16.3,3.4-3-23c11.6-1.4,22.6-5.3,33.7-8.6Z"></path>
  <path class="st0" d="M469.5,360.5c-6,12.1-13.1,23.9-21.8,34.3l-17.4-14.5,3.4-5.8,13.5,8.6,3.9-3.9-14.1-8.9,4-7.4,14.9,7.3,4.3-9.4-3.9-2.2-3.6,4.8-8.1-4.8c-1.1-1.7,3.3-6.9,3.4-9.2l21.4,11Z"></path>
  <path class="st0" d="M215,46l-6.4,1.3-1.2-.6-2.1-12.9-17.8,4.3,1.2,5.5,11.6-3,1.7,8.3-19.2,6.4c-1.1,0-5.7-19-5.9-21.6,11.5-4.7,23.8-7.3,35.9-10.1l.9,1.4,1.1,21.1Z"></path>
  <path class="st0" d="M335.3,33.2l-4.9,22.1-19-5.5,1.8-8.3,10.1,1.6.9-4.9-16.5-3.7-1.8,13.5-8.5-1.9,1.2-22c12.6,1.5,24.7,5.6,36.8,9.2Z"></path>
  <path class="st0" d="M67.3,358.6l-12.7,7.7c1.2,1.9,7,13.3,8.7,13.1l12.2-7.2,5.9,8.1-17.4,14.5c-8-10.5-15.1-21.6-21-33.4,0-1.1,18.6-11.3,19.8-11.4s5.3,7.2,4.5,8.5Z"></path>
  <polygon class="st0" points="446.8 135.5 451 132.8 442.8 121.5 430.5 131.2 426 125.9 435.1 116.8 429.1 109 436.1 101.2 458.3 131 439.7 144.1 433.4 135.7 441.6 128.8 446.8 135.5"></polygon>
  <path class="st0" d="M86.4,126.3c-2.4.4-2.6,3.6-4.6,4.9-2-1.3-12.1-10-13.7-9.1l-6.8,10,3.2,2.8,5.5-6c.5,0,7.4,5.2,7.8,5.7,1.6,2-3.5,6.8-4.7,8.9-2.1.6-16.3-10.4-19.3-12-.3-2.4,19.9-29.3,21.9-29.6l6.3,6.3-6,7.5c.9,1.6,11.2,9.5,10.4,10.7Z"></path>
  <path class="st0" d="M411.2,434.1l-1.3-.4-13.2-18,14.1-14,8.9,6.6-9.8,10.1,3.3,4,16.2-16.2c-1-1.9-2.9-1.7-4.9-1.6l4-4.3,8.2,8.2-25.7,25.5Z"></path>
  <path class="st0" d="M67.3,153.9c-1.4,1-12.9-7.3-15-8.5l-5.8,10.6,3.3,2.1,3.7-5.4,10.6,5.5-5.8,12.1-19.9-10.7c-.5-1.6,10.7-23.1,12-23.5l19.6,12.2-2.8,5.5Z"></path>
  <path class="st0" d="M54.5,182.7c-.6.6-10.3-2.8-11.2-3.6s1.1-5.7-4-4.3c-.5,2.3-2,4.8-2.4,7.1s0,.6.8.9c4.7,1.8,9.7,3.1,14.4,4.9l-1.8,8.5c-2.8-.6-22.3-6.5-22.6-7.7.8-3.1,7.3-24,8.8-24.1l20.3,10.3-2.2,8Z"></path>
  <path class="st0" d="M481.1,333c.8,1.1-8.2,22.2-9.5,22.6l-20.4-9.8,2.4-7.9,17.1,6.7c0-1.9,4.3-8.2,1.5-9.1l-2.1.2-.6,2.1c-1.6,1.4-10.8-4.7-13.4-4.2l1.8-7.9,23.2,7.4Z"></path>
  <path class="st0" d="M53.9,325.6l2.4,7-12.5,5.2c-2.1-.1-1.6-3.5-4.6-2.4l3.1,9.2,15.5-6.2,2.8,7-19.9,10.8-9.8-22.7,23-7.9Z"></path>
  <path class="st0" d="M88.2,404.6c-2.4-.9-3.9-.4-5.5,1.5,4.8,5.8,10.3,11,16.3,15.5l11.5-10.8,5.3,4.5c.4,2.5-12.1,16-13.8,19.2l-27.3-26.7,9-8.8c1.8-.7,5.4,4.5,4.5,5.4Z"></path>
  <path class="st0" d="M487.3,237.9h6.7s.6,24.5.6,24.5h-20.8v4.3h20.2v3.9c0,0-1.5,1-1.5,1l-24.8-.6c-.4-.9.6-1.8.6-2.1v-12h19v-19Z"></path>
  <path class="st0" d="M25.1,256.9h18.4l.6,14.1-25.8.6v-4.9h19.6v-4.3h-20.2l.6-24.5h6.4c1.5.6.4,1.3.4,1.5v17.5Z"></path>
  <polygon class="st0" points="468.3 251.4 467.1 225.7 491.9 222.6 493.4 232.4 483.5 233.3 483 241 479.1 240.9 478.1 240.1 478.1 230.6 473.8 230.6 473.8 245.9 482.4 245.9 482.4 251.4 468.3 251.4"></polygon>
  <path class="st0" d="M367.7,462.9l-3-8.5,4.2-2.3-2.4-4.3-15,7.7-3.4-8.6c7.7-2.8,14.8-7.3,21.8-11.6l11.4,19.3c0,1.5-12.9,8.7-13.5,8.3Z"></path>
  <path class="st0" d="M161.8,456.1l-15.6-8.6-2.2,4.6,3,3-3.9,7c-2.2-1-11.2-5.4-11.3-7.6l10.8-18.7,22.1,11.7-2.8,8.6Z"></path>
  <path class="st0" d="M347.5,47.3l-4.6,13.5-7.6-4,4.8-21.1c3.5.6,27.3,11.1,27.6,12.6l-4,7-16.2-8Z"></path>
  <polygon class="st0" points="381.2 55.3 380.9 57.1 369.9 74.8 348.7 63.8 351.2 55.3 366.2 62 372.9 50.4 381.2 55.3"></polygon>
  <polygon class="st0" points="343.8 450 346.3 457.1 344.4 459 345.7 464.1 359.8 457.4 363.5 465.6 341.4 475.1 334.8 454 343.8 450"></polygon>
  <path class="st0" d="M171,475.1l-23.3-10.4,3.7-7.1,15,6.5c3.2-2.6.2-5.2.4-7.5s2-4.5,2.4-6.6l7.7,3-5.9,22.1Z"></path>
  <polygon class="st0" points="47.2 212.8 45.9 220.8 28.2 218.3 26.3 233 19 233 22.7 208.6 47.2 212.8"></polygon>
  <path class="st0" d="M404.8,102.1c-.2-.3-.9-.3-1-.7-.5-3,7.7-9.6,7.4-10.9l-7.4-7.4,2.5-3.7,3.3-3.4,14.4,13.2-15,16.8c-.5.1-3.6-3.3-4.2-4Z"></path>
  <path class="st0" d="M30,251.4v-5.5s6.8.3,6.8.3c1.4-1,1.2-13.3,1.2-15.7h-2.7s-1.3,9.8-1.3,9.8l-4,.6,2.2-17.2,13.2,1.9-1.2,25.7h-14.1Z"></path>
  <polygon class="st0" points="398.2 67.6 405.1 72.8 396.6 83.8 403.9 91.2 399.2 96.3 385.6 85.5 398.2 67.6"></polygon>
  <path class="st0" d="M227.4,369.1l-1.1-7.8-9.6-14.3c11.9,4.9,24.3,11.1,31.6,22.1h-20.8Z"></path>
  <path class="st0" d="M263.5,369.1c7.2-10.7,19.6-17.7,31.6-22.1l-4.8,5.6c-3.5,4.8-6.4,10.3-5.9,16.5h-20.8Z"></path>
  <path class="st0" d="M83.9,92c.8-.5,2.8,1.8,3.4,2.4,1.6,1.8,12.4,13.6,12.5,14.5l-10.6,12.4-5.7-5.3,5.4-8.4-9.1-10,4.3-5.7Z"></path>
  <path class="st0" d="M260.5,425.5h-8.9c-2-1.7-.4-4.4-.3-6.4.2-5.6-.8-14.4.8-19.5s7-2.7,7.7,0,.7,4.5.7,4.8v21.1Z"></path>
  <path class="st0" d="M417.2,398.7c-.3-.4-1.6-.7-1.6-1.1l11.3-12.6c.7,0,1.2.4,1.8.7,2.1,1.1,12.2,9.1,14.2,11s1.6,1.2,1.6,2.1l-4,5.2-10.5-9.1-8.6,7.2c-1.8.5-3.1-2.3-4.1-3.4Z"></path>
  <path class="st0" d="M93.5,400.7c-.5.4-1.6,1.5-2.2,1.2-2.3-3-6.4-5.1-8-8.3h-.9c-2.9,3.6-8,5.9-10.1,9.8-.8.5-4.3-2.9-4.3-4,0-2,14.5-12.9,16.9-14.9l11.9,13.1c-1.2.7-2.3,2.4-3.3,3.1Z"></path>
  <path class="st0" d="M120.5,420.1c1.7-.3,5,3.9,6.2,5.1-1.7,2.2-11.5,18.8-13,18.6s-6.7-4.9-7.1-6.3c.1-1.1,12.7-17.3,13.8-17.5Z"></path>
  <path class="st0" d="M432.7,97c.6.8-9.4,10.6-11.1,11.4-.3,2.1,5.3,5.6,6.1,7.9-1.3,1.2-3.9,4.9-5.7,4.6-1.1-2.4-9.4-9.9-8.9-11.9l15-16.4,4.6,4.3Z"></path>
  <path class="st0" d="M392,419.5l14.4,17.4c.3,1.4-6.7,5.3-7.6,7l-13.2-18.7,6.4-5.7Z"></path>
  <polygon class="st0" points="489.7 207.9 490.9 217 466.4 220.8 465.2 212.8 489.7 207.9"></polygon>
  <polygon class="st0" points="394.1 447.5 386.4 452.4 375.4 434 375.4 432.2 381.2 428.2 393.5 445.4 394.1 447.5"></polygon>
  <path class="st0" d="M126.8,452.5l-7.8-5.2c0-1,9-14.7,10.4-16.5s1.5-2.3,2.5-2.2l5.9,5-11,18.8Z"></path>
  <polygon class="st0" points="486 193.8 487.8 202.9 464 207.9 462.8 201.5 463.3 200.8 486 193.8"></polygon>
  <polygon class="st0" points="47.7 207.9 23.9 203 26 194.4 48.4 200.8 48.9 201.5 47.7 207.9"></polygon>
  <path class="st0" d="M393.4,63.3l-12.5,18.9-5.5-4.3v-1.8c3-2.6,8.3-15.4,10.8-16.9s5.4,3.9,7.3,4.1Z"></path>
  <path class="st0" d="M126.6,57.8c.9,0,1.2.6,1.7,1.2,3.8,4.9,6.4,11.8,10.1,16.9l-5.9,4.4-1.1-.5-11.3-17,.2-.8,6.3-4.2Z"></path>
  <path class="st0" d="M115.8,65.7l11.6,17.6-5.1,5.1-13.1-17c-.1-1.3,6.1-6.1,6.6-5.7Z"></path>
  <path class="st0" d="M113.3,96.2c-.6.3-1.3.2-1.8-.2l-12.6-15.6c-.6-2.2,4.4-4.5,5.6-6.1l13.1,17-4.3,5Z"></path>
  <path class="st0" d="M92.3,85.1c.9-.7.8-2.7,3-1l13.1,15.8-5.2,5.7-14-16.1-.2-1.6c.8-1.2,2.1-1.8,3.2-2.7Z"></path>
  <path class="st0" d="M477.5,303.5l-1.8,8c-1.8-1.4-12.5-2.7-12.7-4l1.1-6.5,13.5,2.5Z"></path>
  <path class="st0" d="M47.8,301l1.2,7.4c-2.5-.4-10.8,3.3-12.3,2.2l-1.8-7.1,12.9-2.5Z"></path>
  <polygon class="st0" points="465.2 171.1 467.6 178.4 458.1 182.7 455 175.4 465.2 171.1"></polygon>
  <path class="st0" d="M100.9,402.3c1.3-.8,5.1,4.7,5,5.1l-7,7.7-5.9-5.8,7.8-7Z"></path>
  <path class="st0" d="M335.9,244.1c-2.7,4.1-5.9,8-9.8,11l-.6-14.1,10.4,3.1Z"></path>
  <path class="st0" d="M185.7,241.6v13.5c-1.4,0-2.5-1.5-3.4-2.4-2.3-2.4-4.2-5.8-6.4-8.3,0-.9,8.3-3,9.8-2.8Z"></path>
  <path class="st0" d="M72.9,367.9l-8.9,4.4c-2.8-2.3-3.4-3.2-.5-5.5s8.1-6.1,9.4,1.1Z"></path>
  <polygon class="st0" points="188.1 183.4 187.5 193.2 183.9 193.2 183.3 183.8 184.5 183 188.1 183.4"></polygon>
  <polygon class="st0" points="327.9 183.4 327.9 192.6 324.5 193 323.6 192.2 323.6 183.4 327.9 183.4"></polygon>
  <path class="st0" d="M456.5,258.9c4.3,4.2-6.6,8.5-6,2.1.3-3.2,4.2-3.8,6-2.1Z"></path>
  <path class="st0" d="M57.4,258.2c3.1-.9,5.7,2.5,3.3,5.1-4.2,4.7-8-3.7-3.3-5.1Z"></path>
  <path class="st0" d="M295.8,60.3c5.2-1.8,5.8,5.1,2.2,5.9s-5.3-4.9-2.2-5.9Z"></path>
  <path class="st0" d="M181.2,69.5c2.8-.4,4.8,2.6,2.6,5.1-3.9,4.4-7.6-4.4-2.6-5.1Z"></path>
  <path class="st0" d="M216.2,65.5c-1.9,2-6,0-5.1-2.9,1.7-5.5,8.7-.7,5.1,2.9Z"></path>
  <path class="st0" d="M328,70.1c.6-.4,3.5-.2,4.2.2,2.4,1.4.5,5-1.8,5.6s-4-4.8-2.4-5.8Z"></path>
  <path class="st0" d="M57.4,244.7c4.7-1.6,6.5,6.4.5,5.4s-2.5-4.8-.5-5.4Z"></path>
  <path class="st0" d="M452.7,244.2c4-.7,4.6,5.5,1.1,6-4.6.6-4-5.5-1.1-6Z"></path>
  <path class="st0" d="M442,319.4c-2.7-4.4,6-7.5,5.4-1.5s-4.8,2.5-5.4,1.5Z"></path>
  <path class="st0" d="M62.9,303c4.5-1.6,5.9,3.9,2.1,5.2s-5-4.2-2.1-5.2Z"></path>
  <path class="st0" d="M316.1,446.2c-1.7,1.7-5.1.3-5.1-2,0-5.8,8.8-1.7,5.1,2Z"></path>
  <path class="st0" d="M195.3,440.9c4.7-1.4,5.1,7.6-.4,5.1-2.6-1.2-1.7-4.5.4-5.1Z"></path>
  <path class="st0" d="M180.6,435.4c3.8-1.1,4.7,5.6,1,5.9-3.5.3-3.8-5.1-1-5.9Z"></path>
  <path class="st0" d="M446,303c2.8-1,5.9,1.2,3.9,3.9-2.9,4-8-2.5-3.9-3.9Z"></path>
  <path class="st0" d="M332.6,436.7c2.7,2.7-1.7,7.2-4.2,3.9s2-6.1,4.2-3.9Z"></path>
  <path class="st0" d="M68.4,185.3c4.2-1,4.2,5.8.5,5.8s-3.7-5.1-.5-5.8Z"></path>
  <path class="st0" d="M323.4,311c4.4-1.3,5,4.4,1.6,5.3s-4.5-4.5-1.6-5.3Z"></path>
  <path class="st0" d="M441.1,182.9c5.7-1.7,4.2,7.2-.3,5-2.2-1.1-1.8-4.3.3-5Z"></path>
  <path class="st0" d="M184.6,315c-1.8-3.2,3.5-6.1,5.1-2.9s-3.5,5.7-5.1,2.9Z"></path>
  <path class="st0" d="M66.6,314.6c4.2-1.2,5.3,6.9,0,5.3-2.3-.7-2.3-4.7,0-5.3Z"></path>
  <path class="st0" d="M399.4,391.3c2.4-.7,4.7,1,3.5,3.6-2.3,5.1-8.1-2.2-3.5-3.6Z"></path>
  <path class="st0" d="M411,127.7c3.8-.7,4.9,5.1.5,5.4-3.8.2-3.1-4.9-.5-5.4Z"></path>
  <path class="st0" d="M91.4,138.8c1.9-1.9,6.4,1.2,4.2,3.9s-7-1-4.2-3.9Z"></path>
  <path class="st0" d="M94.8,371.7c2.5,2.4-2,6.6-4.2,3.9-2.1-2.6,1.6-6.5,4.2-3.9Z"></path>
  <path class="st0" d="M434.7,173.4c-2.2-2.1,1.9-7.2,4.7-3.1s-2.4,5.4-4.7,3.1Z"></path>
  <path class="st0" d="M122.4,401.1c4.6-1.4,4.7,4.9,1,5.3s-3.7-4.5-1-5.3Z"></path>
  <path class="st0" d="M422.1,371.7c1.6,1.5-.2,5.3-2.9,4.5-4.4-1.4-.4-7.7,2.9-4.5Z"></path>
  <path class="st0" d="M409.2,380.8c2.1-.6,4.7,1.8,3.3,3.9-3.1,4.7-7.6-2.7-3.3-3.9Z"></path>
  <path class="st0" d="M434.1,345.6c-1.6-1.5.2-5.3,2.9-4.5,4.4,1.4.4,7.7-2.9,4.5Z"></path>
  <path class="st0" d="M76.4,175.2c-1.5,1.6-5.3-.2-4.5-2.9,1.4-4.4,7.7-.4,4.5,2.9Z"></path>
  <path class="st0" d="M390.3,103.2c2.5,1.6-1.4,7.8-4.2,3.9s2.3-5.2,4.2-3.9Z"></path>
  <path class="st0" d="M125.5,103.8c1.8,1.8,0,5.7-2.9,4.5-4.3-1.9-.3-7.6,2.9-4.5Z"></path>
  <path class="st0" d="M142,89.7c4.3-1.3,5.2,4.3,1.5,5.1-2.6.5-4.7-4.2-1.5-5.1Z"></path>
  <path class="st0" d="M341.5,431.2c1.5-1.6,5.3.2,4.5,2.9-1.3,4.3-7.7.4-4.5-2.9Z"></path>
  <path class="st0" d="M421,138.7c1.4.9,1.1,5.3-2.6,4.8-4.7-.7-1-7.1,2.6-4.8Z"></path>
  <path class="st0" d="M370.7,421c-2.4,2.3-6.2-.6-4.5-3.5,1.9-3.1,6.9,1.1,4.5,3.5Z"></path>
  <path class="st0" d="M396.9,111.7c2.4-.5,5.1,4.3,1.6,5.3-4.9,1.5-4.3-4.8-1.6-5.3Z"></path>
  <path class="st0" d="M113.8,395.9c-1.8,1.8-5.4-.3-4.3-2.7,2.2-4.8,7.2-.2,4.3,2.7Z"></path>
  <path class="st0" d="M75.1,341.6c2.4-.8,4.5.8,3.4,3.4-2.2,5.2-7.7-2-3.4-3.4Z"></path>
  <path class="st0" d="M153.6,81.7c1.9-.5,4.4,1.7,3.2,3.8-3,5.3-7.4-2.8-3.2-3.8Z"></path>
  <path class="st0" d="M355.3,424.3c3.6-1,4.4,4.5,1.6,5.3-3.6,1-4.4-4.5-1.6-5.3Z"></path>
  <path class="st0" d="M167.1,430.5c4.7-1.4,5.3,5.5.5,4.8s-3-4.1-.5-4.8Z"></path>
  <path class="st0" d="M113.2,112.4c4.7-1.4,5.3,5.5.5,4.8-2.7-.4-3-4.1-.5-4.8Z"></path>
  <path class="st0" d="M355.6,86.4c-1.7-2.6,2.2-7,4.8-3.2s-3.5,5.2-4.8,3.2Z"></path>
  <path class="st0" d="M371.3,90.3c1.7,1.7.4,5.1-2.5,4.6-4.9-.8-.5-7.6,2.5-4.6Z"></path>
  <path class="st0" d="M104,381.5c1.6,1.4.5,5.2-2.6,4.8-4.7-.7-.5-7.4,2.6-4.8Z"></path>
  <path class="st0" d="M390.9,405.8c-2.9,1.9-6.6-2.5-3.6-4.5,3.3-2.2,5.7,3.2,3.6,4.5Z"></path>
  <path class="st0" d="M154,424.4c4.6-1.8,5.8,3.1,1.9,5.3-2.5-.8-3.4-3.1-1.9-5.3Z"></path>
  <path class="st0" d="M130.7,97.1c2.1-2,5.9,0,4.5,2.9s-6.9-.5-4.5-2.9Z"></path>
  <path class="st0" d="M141.6,421.7c-1.5-.9-.8-7.1,3.6-4.5,2.8,1.6-1.1,6.1-3.6,4.5Z"></path>
  <path class="st0" d="M131.5,410.2c4.7-1.6,5.2,5.6.5,4.9s-2.2-4.3-.5-4.9Z"></path>
  <path class="st0" d="M99,128.3c5.6-1.9,4.8,5.9.7,4.7s-2.5-4.1-.7-4.7Z"></path>
  <path class="st0" d="M377,414.4c-2.1-3.4,3.1-5.9,4.5-3,1.8,3.6-3.6,4.5-4.5,3Z"></path>
  <path class="st0" d="M121.9,295c.5.3,1.4,4.8-.2,5.5-.9,0-2.9-7.4.2-5.5Z"></path>
  <polygon class="st0" points="391 294.9 390.9 299.4 389.2 300.4 389.3 295.9 391 294.9"></polygon>
  <path class="st0" d="M260.5,442.6c3.8-1.1,7.6,4.8,10.8,2.5,3.9-2.8-.2-8.1-4-8-.3-1.4.2-1,.8-1.4,7-4.5,14.2,6.5,8.1,12.4-5.3,5.1-14.3,1.3-15.6-5.5Z"></path>
  <path class="st0" d="M244.5,437.1c-3.6.3-7.7,3.8-5.2,7.3,2.8,3.9,7.7-3.1,11.9-1.2-2.1,5.6-8.1,9.1-13.8,6.1-5.4-2.8-5.4-10.6-.3-13.8,2.2-1.4,6.7-1.8,7.3,1.5Z"></path>
  <path class="st0" d="M134.5,363.6c5.5.5,14.2,3.1,18.5,6.6.5.4,1.7.4.5,1.4-11-3.6-22.5-5.6-34-6.8-.3-.6,1.4-1.2,1.5-1.2,4.3,0,9.4-.4,13.5,0Z"></path>
  <path class="st0" d="M392.3,364.2l-34.9,7.3c8.8-8.7,23.4-8.6,34.9-7.3Z"></path>
  <path class="st0" d="M165.5,359.9h-.6c.1-.6-.6-1.2-.6-1.5v-9.2c0-.8,1.3-3.1.6-4.6h.6s0,15.3,0,15.3Z"></path>
  <path class="st0" d="M346.3,345.8l1.3,6.4c-.3,2.1.8,5.7-1.3,7.1v-13.5Z"></path>
  <path class="st0" d="M427.2,244.7c-7,5.6-12.9,11.6-16.4,20.1s-2.8,9.8-4.6,14.4-.2,1.8-1.1,1.7c-.1-15.5,6.1-31.6,22.1-36.2Z"></path>
  <path class="st0" d="M375.1,164.4c-2.4-1-4.6-2.2-7-3.1-4-1.4-8.2-2-12.3-3s-1.9,0-2.1-1.2c7.6.2,16.4,1,21.5,7.3Z"></path>
  <path class="st0" d="M410.6,199.9c-1,.2-.7-1.5-.6-2.1.8-4.5,3.4-10,6.7-13.2l-6.1,15.3Z"></path>
  <path class="st0" d="M375.1,316.4l-3.1-7-1.8-6.4c3.1,3.3,4.5,9,4.9,13.5Z"></path>
  <path class="st0" d="M405.7,220.1c-1.2-.2-1-1.3-1.2-2.1-1.3-4.4-2.3-9.2-3-13.8l2.3,6,2,9.9Z"></path>
  <path class="st0" d="M345.7,134.9l-14.1-3.1c4.5,0,10.5,0,14.1,3.1Z"></path>
  <path class="st0" d="M106.6,280.8c-.9.1-.8-1.1-1-1.7-2.4-7.1-3.5-14.1-7.7-20.5s-7.9-9-12.1-13.3c15.4,5.1,20.7,20.5,20.8,35.5Z"></path>
  <path class="st0" d="M158.1,157.6l-15.6,4.3-6.4,3.1c5.1-6.7,14.3-7.7,22.1-7.3Z"></path>
  <path class="st0" d="M101.7,199.9l-6.1-14.7c3.6,3.5,5.9,9.6,6.1,14.7Z"></path>
  <path class="st0" d="M136.6,317c-1.1.1-.6-1.3-.5-2,.6-4,2.6-9.7,5.4-12.7l-4.9,14.7Z"></path>
  <path class="st0" d="M106,220.1l.9-6.8,2.8-8.6c0,4.2-1.2,9.1-2.4,13.2s0,1.9-1.2,2.1Z"></path>
  <path class="st0" d="M178.9,131.9c.2.9-1.2.8-1.8.9-3.7.7-7.5.7-11.1,2.1,3-3,8.9-3,12.9-3.1Z"></path>
  <path class="st0" d="M285.6,24.6v12.3h-12.6l-.9.9v19.6c0,.3-2,4-3.1,3.4v-28.2h10.4v-3.3c-.1-.4-1.4-1-1.5-1h-12.6l-.6,34.6-1.8,1.5-.6-39.8h23.3Z"></path>
  <path class="st0" d="M249.4,24.6v39.8c-.9.5-2.5-1.7-2.5-2.1V28.3h-14.7v4.3h10.4v28.2h-1.2c0-1.2-1.9-3.2-1.9-4v-19l-.9-.9h-12.6v-11.6c.6.2,1.3-.6,1.5-.6h21.8Z"></path>
  <path class="st0" d="M248.2,77.9c2-5.5,6.2-6.2,11.6-5.4l3.2,5.4h-14.7Z"></path>
  <path class="st0" d="M119.5,334.8c-4-5.1-7.2-10.9-11.6-15.6-5.4-5.7-12.1-9.8-18.4-14.4,14.7,4,26.3,15.2,30,30Z"></path>
  <path class="st0" d="M422.9,304.7c-4.5,3.4-9.5,6.1-13.8,9.8-6.7,5.8-11.7,13-16.8,20.2,4.2-15,15.6-26.1,30.6-30Z"></path>
  <path class="st0" d="M383.7,261.2l-6.7-10.4c.7-.7,7.4,8.6,6.7,10.4Z"></path>
  <path class="st0" d="M135.4,250.8l-7.3,10.4c-.7-2.1,6-11.7,7.3-10.4Z"></path>
  <path class="st0" d="M140.3,200.5l-8,7.3c-.3-1.1.6-1.5,1.2-2.1,1.6-2,4.2-4.5,6.7-5.2Z"></path>
  <path class="st0" d="M387.3,149c-2-2.2-1.8-6.4-3.1-9.2,2.4,2,3.1,6.2,3.1,9.2Z"></path>
</svg><style>@media (prefers-color-scheme: light) { :root { filter: contrast(1) brightness(1); } }
@media (prefers-color-scheme: dark) { :root { filter: contrast(0.7407407407407407) brightness(2); } }
</style></svg>